# Alias OBJ Model File
# Exported from SketchUp, (c) 2000-2012 Trimble Navigation Limited
# File units = meters

mtllib ev.mtl

g Mesh1 Model

usemtl FrontColor
v 19.9557 0 -42.5485
vt -785.656 1675.14
vn 0 -1 -0
v 22.4657 0 -39.7208
vt -884.478 1563.81
v 19.9557 0 -14.5385
vt -785.656 572.38
f 1/1/1 2/2/1 3/3/1

v 46.5857 0 -42.5485
vt -1834.08 1675.14
f 2/2/1 1/1/1 4/4/1

vt -1834.08 0
vn 0 0 -1
vt -785.656 0
v 19.9557 16.79 -42.5485
vt -785.656 661.024
v 42.7984 16.79 -42.5485
vt -1684.98 661.024
v 46.5857 16.79 -42.5485
vt -1834.08 661.024
f 4/5/2 1/6/2 5/7/2 6/8/2 7/9/2 

vt -1675.14 0
vn -1 0 -0
vt -572.38 0
v 19.9557 16.79 -14.5385
vt -572.38 661.024
v 19.9557 16.79 -16.3808
vt -644.912 661.024
vt -1675.14 661.024
f 1/10/3 3/11/3 8/12/3 9/13/3 5/14/3 

vt 785.656 0
vn 0 0 1
v 46.5857 0 -14.5385
vt 1834.08 0
v 46.5857 16.79 -14.5385
vt 1834.08 661.024
vt 785.656 661.024
f 3/15/4 10/16/4 11/17/4 8/18/4 

v 22.4657 0 -16.3808
vt -884.478 644.912
vt -1834.08 572.38
f 3/3/1 12/19/1 10/20/1

f 12/19/1 3/3/1 2/2/1

vt 644.912 0
vn 1 0 -0
vt 1563.81 0
v 22.4657 16.79 -39.7208
vt 1563.81 661.024
v 22.4657 16.79 -16.3808
vt 644.912 661.024
f 12/21/5 2/22/5 13/23/5 14/24/5 

v 44.6357 0 -16.3808
vt -1757.31 644.912
v 44.6357 0 -39.7208
vt -1757.31 1563.81
f 15/25/1 12/19/1 2/2/1 16/26/1 

f 10/20/1 12/19/1 15/25/1

vt -1757.31 0
vt -884.478 0
vt -884.478 661.024
v 42.7984 16.79 -16.3808
v 44.6357 16.79 -16.3808
vt -1757.31 661.024
f 15/27/2 12/28/2 14/29/2 17/8/2 18/30/2 

vt 884.478 644.912
vn 0 1 -0
vt 1684.98 644.912
v 42.7984 16.79 -39.7208
vt 1684.98 1563.81
vt 884.478 1563.81
f 14/31/6 17/32/6 19/33/6 13/34/6 

vt 1834.08 1675.14
vt 1684.98 1675.14
v 44.6357 16.79 -39.7208
vt 1757.31 1563.81
vt 1757.31 644.912
vt 785.656 644.912
vt 785.656 572.38
vt 1834.08 572.38
f 7/35/6 6/36/6 19/33/6 20/37/6 18/38/6 17/32/6 14/31/6 9/39/6 8/40/6 11/41/6 

vt 785.656 1675.14
f 13/34/6 19/33/6 6/36/6 5/42/6 9/39/6 14/31/6 

vt 884.478 0
vt 1757.31 0
vt 1757.31 661.024
vt 1684.98 661.024
vt 884.478 661.024
f 2/43/4 16/44/4 20/45/4 19/46/4 13/47/4 

f 2/2/1 4/4/1 16/26/1

f 16/26/1 4/4/1 15/25/1

f 10/20/1 15/25/1 4/4/1

v 46.5857 0.6886 -23.313
vt 917.835 27.1102
vt 572.38 0
vt 1675.14 0
f 21/48/5 10/49/5 4/50/5

vt 572.38 661.024
f 10/49/5 21/48/5 11/51/5

v 46.5857 9.0862 -23.313
vt 917.835 357.724
f 22/52/5 11/51/5 21/48/5

vt 1675.14 661.024
f 11/51/5 22/52/5 7/53/5

v 46.5857 9.0862 -28.503
vt 1122.17 357.724
f 7/53/5 22/52/5 23/54/5

vt -1834.08 1122.17
vt -1834.08 917.835
v 44.6357 9.0862 -23.313
vt -1757.31 917.835
v 44.6357 9.0862 -28.503
vt -1757.31 1122.17
f 23/55/1 22/56/1 24/57/1 25/58/1 

vt -1834.08 357.724
vt -1834.08 27.1102
v 44.6357 0.6886 -23.313
vt -1757.31 27.1102
vt -1757.31 357.724
f 22/59/2 21/60/2 26/61/2 24/62/2 

vt 1834.08 917.835
v 46.5857 0.6886 -28.503
vt 1834.08 1122.17
v 44.6357 0.6886 -28.503
vt 1757.31 1122.17
vt 1757.31 917.835
f 21/63/6 27/64/6 28/65/6 26/66/6 

vt 1122.17 27.1102
f 21/48/5 4/50/5 27/67/5

f 27/67/5 4/50/5 23/54/5

f 7/53/5 23/54/5 4/50/5

vt 1834.08 27.1102
vt 1834.08 357.724
vt 1757.31 357.724
vt 1757.31 27.1102
f 27/68/4 23/69/4 25/70/4 28/71/4 

vt -1122.17 357.724
vt -1563.81 661.024
vt -1122.17 27.1102
f 25/72/3 20/73/3 28/74/3

vt -917.835 357.724
f 24/75/3 20/73/3 25/72/3

f 24/75/3 18/13/3 20/73/3

vt -644.912 0
f 18/13/3 24/75/3 15/76/3

vt -917.835 27.1102
f 26/77/3 15/76/3 24/75/3

vt -1563.81 0
f 15/76/3 26/77/3 16/78/3

f 16/78/3 26/77/3 28/74/3

f 16/78/3 28/74/3 20/73/3

f 19/33/6 17/32/6 18/38/6 20/37/6 

