# Alias OBJ Model File
# Exported from SketchUp, (c) 2000-2012 Trimble Navigation Limited
# File units = meters

mtllib merdiven.mtl

g Mesh1 Model

usemtl FrontColor
v 3.51416 0 -4.83681
vt -138.353 190.426
vn 0 -1 -0
v 3.03883 0 -4.70681
vt -119.639 185.308
v 3.03883 0 -10.5268
vt -119.639 414.441
v 3.51416 0 -10.5268
vt -138.353 414.441
f 1/1/1 2/2/1 3/3/1 4/4/1 

vt 183.687 -126.342
vn 0.135325 -0.858404 0.494802
v 3.66025 0.2 -4.5298
vt 186.046 -110.992
v 3.65084 0.2 -4.52722
vt 185.662 -110.992
v 3.18492 0.2 -4.3998
vt 166.645 -110.992
vt 164.286 -126.342
f 1/5/2 5/6/2 6/7/2 7/8/2 2/9/2 

vt 190.426 81.6077
vn 0.807511 -0.589852 -1.12702e-017
vt 414.441 81.6077
v 3.66025 0.2 -10.2198
vt 402.354 91.3587
v 3.66025 0.2 -10.0912
vt 397.293 91.3587
vt 178.339 91.3587
f 1/10/3 4/11/3 8/12/3 9/13/3 5/14/3 

vt -119.639 -347.258
vn 2.97881e-017 0.837893 -0.545835
v 3.18492 0.2 -10.2198
vt -125.391 -332.832
vt -144.104 -332.832
vt -138.353 -347.258
f 3/15/4 10/16/4 8/17/4 4/18/4 

vt -173.22 80.3203
vn -0.807511 0.589852 -9.0248e-019
vt -402.354 80.3203
vt -414.441 70.5693
vt -185.308 70.5693
f 7/19/5 10/20/5 3/21/5 2/22/5 

vt 125.391 173.22
vn -7.59567e-016 1 -1.39171e-018
vt 143.734 178.237
v 3.65084 0.2 -10.0912
vt 143.734 397.293
vt 144.104 397.293
vt 144.104 402.354
vt 125.391 402.354
f 7/23/6 6/24/6 11/25/6 9/26/6 8/27/6 10/28/6 

vt 144.104 178.339
vn 3.83444e-014 1 6.48883e-017
f 5/29/7 9/26/7 11/25/7 6/24/7 

v 3.65084 0.2 -4.27123
vt -143.734 168.159
vn 7.65809e-016 -1 2.78084e-018
vt -143.734 178.237
vt -144.104 178.339
vt -144.104 397.293
v 4.12617 0.2 -10.0912
vt -162.448 397.293
v 4.12617 0.2 -4.81637
vt -162.448 189.621
v 4.11814 0.2 -4.39904
vt -162.132 173.19
f 12/30/8 6/31/8 5/32/8 9/33/8 13/34/8 14/35/8 15/36/8 

vt -178.237 7.87402
vn -1 0 -0
vt -168.159 7.87402
v 3.65084 0.44 -4.15123
vt -163.434 17.3228
v 3.65084 0.44 -10.1597
vt -399.99 17.3228
vt -397.293 7.87402
f 6/37/9 12/38/9 16/39/9 17/40/9 11/41/9 

vt 202.077 -46.8975
vn 0.237613 -0.434405 0.868811
v 4.12617 0.2 -4.40123
vt 202.404 -46.8975
v 4.12617 0.44 -4.28123
vt 201.158 -36.4072
vt 181.757 -36.4072
vt 183.003 -46.8975
f 15/42/10 18/43/10 19/44/10 16/45/10 12/46/10 

vt -162.448 173.277
f 18/47/1 15/36/1 14/35/1

v 4.70932 0.2 -10.4209
vt -185.406 410.273
vn 1.41314e-016 -1 9.60989e-018
v 4.60136 0.2 -4.92658
vt -181.156 193.96
v 4.5746 0.2 -4.35684
vt -180.102 171.529
v 4.11491 0.2 -4.23112
vt -162.004 166.579
v 4.23399 0.2 -10.4209
vt -166.692 410.273
f 20/48/11 21/49/11 22/50/11 23/51/11 15/36/11 18/47/11 14/35/11 24/52/11 

vt 197.481 7.87402
vn 0.999807 1.53158e-016 0.0196458
vt 413.837 7.87402
v 4.70932 0.61 -10.4209
vt 413.837 24.0157
v 4.59025 0.61 -4.36112
vt 175.215 24.0157
v 4.59025 0.2 -4.36112
vt 175.215 7.87402
f 21/53/12 20/54/12 25/55/12 26/56/12 27/57/12 

vt -185.406 7.87402
vn 0 0 -1
vt -166.692 7.87402
v 4.23399 0.61 -10.4209
vt -166.692 24.0157
vt -185.406 24.0157
f 20/58/13 24/59/13 28/60/13 25/61/13 

vt -176.277 7.87402
vn -0.999815 0 -0.0192334
vt -169.665 7.87402
v 4.11491 0.61 -4.23112
vt -169.665 24.0157
vt -413.404 24.0157
vt -413.404 7.87402
vt -192.71 7.87402
f 15/62/14 23/63/14 29/64/14 28/65/14 24/66/14 14/67/14 

vt 218.972 7.87402
vn 0.263804 2.09834e-016 0.964576
vt 219.611 7.87402
vt 219.611 24.0157
vt 200.21 24.0157
vt 200.21 7.87402
f 22/68/15 27/69/15 26/70/15 29/71/15 23/72/15 

vt -180.718 171.698
vn -5.84109e-015 -1 -2.74361e-016
f 27/73/16 22/50/16 21/49/16

v 5.3482 0.2 -10.707
vt -210.559 421.535
vn 6.90026e-018 -1 1.48358e-017
v 5.12868 0.2 -6.12845
vt -201.916 241.278
v 4.99066 0.2 -4.43974
vt -196.483 174.793
v 5.04847 0.2 -4.45554
vt -198.759 175.415
v 5.04804 0.2 -4.44656
vt -198.742 175.061
v 4.5727 0.2 -4.31656
vt -180.028 169.943
v 4.87287 0.2 -10.707
vt -191.845 421.535
f 30/74/17 31/75/17 32/76/17 33/77/17 34/78/17 35/79/17 22/50/17 27/73/17 21/49/17 36/80/17 

vt 250.671 7.87402
vn 0.998853 -1.16428e-016 0.0478912
vt 431.136 7.87402
v 5.3482 0.9 -10.707
vt 431.136 35.4331
v 5.04804 0.9 -4.44656
vt 184.378 35.4331
vt 184.378 7.87402
vt 184.733 7.87402
f 31/81/18 30/82/18 37/83/18 38/84/18 34/85/18 33/86/18 

vt -210.559 7.87402
vt -191.845 7.87402
v 4.87287 0.9 -10.707
vt -191.845 35.4331
vt -210.559 35.4331
f 30/87/13 36/88/13 39/89/13 37/90/13 

vt -179.79 7.87402
vn -0.998899 -3.61117e-017 -0.0469191
vt -178.203 7.87402
v 4.5727 0.9 -4.31656
vt -178.203 35.4331
vt -430.072 35.4331
vt -430.072 7.87402
vt -202.246 7.87402
f 22/91/19 35/92/19 40/93/19 39/94/19 36/95/19 21/96/19 

vt 218.482 7.87402
vn 0.263804 0 0.964576
vt 237.883 7.87402
vt 237.883 35.4331
vt 218.482 35.4331
f 35/97/20 34/98/20 38/99/20 40/100/20 

vt 180.028 169.943
vn -3.9009e-018 1 -2.87141e-017
vt 198.742 175.061
vt 210.559 421.535
vt 191.845 421.535
f 40/101/21 38/102/21 37/103/21 39/104/21 

vn 1.58559e-015 -1 8.95085e-017
f 32/76/22 31/75/22 33/77/22

vt -256.923 7.87402
vn -0.996677 7.01733e-017 -0.0814554
vt -190.217 7.87402
v 4.99066 1.15 -4.43974
vt -190.217 45.2756
v 5.50287 1.15 -10.707
vt -437.782 45.2756
v 5.50287 0.2 -10.707
vt -437.782 7.87402
f 31/105/23 32/106/23 41/107/23 42/108/23 43/109/23 

vt 237.993 7.87402
vn 0.263804 -5.7214e-017 0.964576
v 5.466 0.2 -4.56974
vt 255.035 7.87402
v 5.466 1.15 -4.56974
vt 255.035 45.2756
vt 235.634 45.2756
vt 235.634 7.87402
f 33/110/24 44/111/24 45/112/24 41/113/24 32/114/24 

vt -215.197 179.911
vn -1.01301e-016 -1 -2.99534e-019
vt -216.648 421.535
v 5.9782 0.2 -10.707
vt -235.362 421.535
f 44/115/25 33/77/25 31/75/25 43/116/25 46/117/25 

vt -235.362 7.87402
vt -216.648 7.87402
vt -216.648 45.2756
v 5.9782 1.15 -10.707
vt -235.362 45.2756
f 46/118/13 43/119/13 42/120/13 47/121/13 

vt 196.483 174.793
vn 0 1 -0
vt 215.197 179.911
vt 235.362 421.535
vt 216.648 421.535
f 41/122/26 45/123/26 47/124/26 42/125/26 

vt 197.185 7.87402
vn 0.996535 0 0.083169
vt 439.65 7.87402
vt 439.65 45.2756
vt 197.185 45.2756
f 44/126/27 46/127/27 47/128/27 45/129/27 

vt 162.004 166.579
vt 180.718 171.698
vt 185.406 410.273
vt 166.692 410.273
f 29/130/26 26/131/26 25/132/26 28/133/26 

vt 189.621 7.87402
vn 1 -3.00796e-015 8.32357e-033
vt 397.293 7.87402
v 4.12617 0.44 -10.1597
vt 399.99 17.3228
vt 168.552 17.3228
vt 173.277 7.87402
f 14/134/28 13/135/28 48/136/28 19/137/28 18/138/28 

vt -144.104 116.621
vn 6.06102e-017 -0.274481 -0.961592
vt -143.734 116.621
vt -143.734 126.447
vt -162.448 126.447
vt -162.448 116.621
f 9/139/29 11/140/29 17/141/29 48/142/29 13/143/29 

vt 143.734 163.434
vt 162.448 168.552
vt 162.448 399.99
vt 143.734 399.99
f 16/144/26 19/145/26 48/146/26 17/147/26 

