# Alias OBJ Model File
# Exported from SketchUp, (c) 2000-2012 Trimble Navigation Limited
# File units = meters

mtllib ev2.mtl

g Mesh1 Model

usemtl FrontColor
v 46.5857 0.6886 -23.313
vt 1834.08 917.835
vn 0 1 -0
v 46.5857 0.6886 -28.503
vt 1834.08 1122.17
v 44.6357 0.6886 -28.503
vt 1757.31 1122.17
v 44.6357 0.6886 -23.313
vt 1757.31 917.835
f 1/1/1 2/2/1 3/3/1 4/4/1 

vt 917.835 27.1102
vn 1 -9.96787e-017 5.7849e-017
v 46.5857 0 -39.7208
vt 1563.81 1.82819e-013
vt 1122.17 27.1102
f 1/5/2 5/6/2 2/7/2

v 46.5857 0 -14.5385
vt 572.38 1.82819e-013
f 1/5/2 6/8/2 5/6/2

v 46.5857 16.79 -14.5385
vt 572.38 661.024
f 6/8/2 1/5/2 7/9/2

v 46.5857 16.79 -16.3808
vt 644.912 661.024
f 7/9/2 1/5/2 8/10/2

v 46.5857 9.0862 -23.313
vt 917.835 357.724
f 9/11/2 8/10/2 1/5/2

v 46.5857 16.79 -39.7208
vt 1563.81 661.024
f 8/10/2 9/11/2 10/12/2

v 46.5857 9.0862 -28.503
vt 1122.17 357.724
f 10/12/2 9/11/2 11/13/2

vt -1834.08 1122.17
vn 0 -1 -0
vt -1834.08 917.835
v 44.6357 9.0862 -23.313
vt -1757.31 917.835
v 44.6357 9.0862 -28.503
vt -1757.31 1122.17
f 11/14/3 9/15/3 12/16/3 13/17/3 

vt -1834.08 357.724
vn 0 0 -1
vt -1834.08 27.1102
vt -1757.31 27.1102
vt -1757.31 357.724
f 9/18/4 1/19/4 4/20/4 12/21/4 

vt -917.835 27.1102
vn -1 0 -0
v 44.6357 0 -16.3808
vt -644.912 0
vt -917.835 357.724
f 4/22/5 14/23/5 12/24/5

v 44.6357 0 -39.7208
vt -1563.81 0
f 14/23/5 4/22/5 15/25/5

vt -1122.17 27.1102
f 15/25/5 4/22/5 3/26/5

v 44.6357 16.79 -39.7208
vt -1563.81 661.024
f 15/25/5 3/26/5 16/27/5

vt -1122.17 357.724
f 13/28/5 16/27/5 3/26/5

f 12/24/5 16/27/5 13/28/5

v 44.6357 16.79 -16.3808
vt -644.912 661.024
f 12/24/5 17/29/5 16/27/5

f 17/29/5 12/24/5 14/23/5

vt -1757.31 0
v 22.4657 0 -16.3808
vt -884.478 0
v 22.4657 16.79 -16.3808
vt -884.478 661.024
v 42.7984 16.79 -16.3808
vt -1684.98 661.024
v 43.4257 16.79 -16.3808
vt -1709.67 661.024
vt -1757.31 661.024
f 14/30/4 18/31/4 19/32/4 20/33/4 21/34/4 17/35/4 

vt -1757.31 644.912
vt -884.478 644.912
v 22.4657 0 -39.7208
vt -884.478 1563.81
vt -1757.31 1563.81
f 14/36/3 18/37/3 22/38/3 15/39/3 

vt -1834.08 572.38
f 6/40/3 18/37/3 14/36/3

v 19.9557 0 -14.5385
vt -785.656 572.38
f 23/41/3 18/37/3 6/40/3

f 18/37/3 23/41/3 22/38/3

v 19.9557 0 -42.5485
vt -785.656 1675.14
f 24/42/3 22/38/3 23/41/3

v 43.4257 0 -42.5485
vt -1709.67 1675.14
f 22/38/3 24/42/3 25/43/3

usemtl Color_A06
v 42.7984 16.79 -42.5485
v 43.4257 16.79 -42.5485
vt -1709.67 0
vt -785.656 0
v 19.9557 16.79 -42.5485
vt -785.656 661.024
f 26/33/4 27/34/4 25/44/4 24/45/4 28/46/4 

usemtl FrontColor
v 42.7984 16.79 -39.7208
vt 1684.98 1563.81
v 43.4257 16.79 -39.7208
vt 1709.67 1563.81
vt 1709.67 1675.14
vt 1684.98 1675.14
f 29/47/1 30/48/1 27/49/1 26/50/1 

vt 884.478 0
vn 0 0 1
vt 1757.31 0
vt 1757.31 661.024
vt 1709.67 661.024
vt 1684.98 661.024
v 22.4657 16.79 -39.7208
vt 884.478 661.024
f 22/51/6 15/52/6 16/53/6 30/54/6 29/55/6 31/56/6 

f 22/38/3 25/43/3 15/39/3

v 46.5857 0 -42.5485
vt -1834.08 1675.14
f 15/39/3 25/43/3 32/57/3

vt -1834.08 0
v 46.5857 16.79 -42.5485
vt -1834.08 661.024
f 32/58/4 25/44/4 27/34/4 33/59/4 

v 45.9357 16.79 -39.7208
vt 1808.49 1563.81
vt 1834.08 1563.81
vt 1834.08 1675.14
vt 1757.31 1563.81
vt 1757.31 644.912
v 45.9357 16.79 -16.3808
vt 1808.49 644.912
f 34/60/1 10/61/1 33/62/1 27/49/1 30/48/1 16/63/1 17/64/1 35/65/1 

vt 1834.08 0
v 68.1057 0 -39.7208
vt 2681.33 0
v 68.1057 16.79 -39.7208
vt 2681.33 661.024
v 66.2684 16.79 -39.7208
vt 2608.99 661.024
vt 1834.08 661.024
vt 1808.49 661.024
v 45.9357 0 -39.7208
vt 1808.49 0
f 5/66/6 36/67/6 37/68/6 38/69/6 10/70/6 34/71/6 39/72/6 

v 68.1057 0.6886 -28.503
f 36/25/5 40/26/5 37/27/5

v 68.1057 0.6886 -23.313
f 36/25/5 41/22/5 40/26/5

v 68.1057 0 -16.3808
f 42/23/5 41/22/5 36/25/5

v 68.1057 9.0862 -23.313
f 41/22/5 42/23/5 43/24/5

v 68.1057 16.79 -16.3808
f 44/29/5 43/24/5 42/23/5

f 43/24/5 44/29/5 37/27/5

vt 2608.99 1563.81
v 66.2684 16.79 -16.3808
vt 2608.99 644.912
vt 2681.33 644.912
vt 2681.33 1563.81
f 38/73/1 45/74/1 44/75/1 37/76/1 

usemtl Stone_Brushed_Khaki
vt 108.708 65.1587
v 60.5961 16.79 -34.0484
vt 99.403 55.8537
vt 108.708 26.8713
f 38/77/1 46/78/1 45/79/1

v 52.258 16.79 -34.0484
vt 85.725 55.8537
f 38/77/1 47/80/1 46/78/1

vt 76.42 65.1587
f 10/81/1 47/80/1 38/77/1

v 52.258 16.79 -22.0531
vt 85.725 36.1763
f 47/80/1 10/81/1 48/82/1

vt 76.42 26.8713
f 8/83/1 48/82/1 10/81/1

f 48/82/1 8/83/1 45/79/1

usemtl FrontColor
vt 1834.08 644.912
vt 1834.08 572.38
v 70.0557 16.79 -14.5385
vt 2758.1 572.38
v 70.0557 16.79 -42.5485
vt 2758.1 1675.14
v 66.2684 16.79 -42.5485
vt 2608.99 1675.14
f 45/74/1 8/84/1 7/85/1 49/86/1 50/87/1 51/88/1 38/73/1 37/76/1 44/75/1 

v 43.4257 16.79 -14.5385
vt 1709.67 572.38
vt 1709.67 644.912
f 52/89/1 7/85/1 8/84/1 35/65/1 17/64/1 21/90/1 

vt 785.656 0
v 19.9557 16.79 -14.5385
vt 785.656 661.024
f 23/91/6 6/66/6 7/70/6 52/54/6 53/92/6 

usemtl Granite_Brown
vt 32.7357 23.8492
vt 71.2363 23.8492
vt 71.2363 26.8713
vt 70.2074 26.8713
vt 36.8533 26.8713
v 19.9557 16.79 -16.3808
vt 32.7357 26.8713
f 53/93/1 52/94/1 21/95/1 20/96/1 19/97/1 54/98/1 

usemtl FrontColor
vt 1684.98 644.912
f 20/99/1 21/90/1 30/48/1 29/47/1 

f 16/63/1 30/48/1 21/90/1 17/64/1 

v 33.867 16.79 -30.7893
vt 1333.35 1212.18
f 29/47/1 55/100/1 20/99/1

v 31.3972 16.79 -30.7893
vt 1236.11 1212.18
f 29/47/1 56/101/1 55/100/1

vt 884.478 1563.81
f 31/102/1 56/101/1 29/47/1

v 31.3972 16.79 -25.3122
vt 1236.11 996.543
f 56/101/1 31/102/1 57/103/1

vt 884.478 644.912
f 19/104/1 57/103/1 31/102/1

f 57/103/1 19/104/1 20/99/1

v 33.867 16.79 -25.3122
vt 1333.35 996.543
f 57/103/1 20/99/1 58/105/1

f 58/105/1 20/99/1 55/100/1

f 57/103/1 58/105/1 55/100/1 56/101/1 

usemtl Color_A06
vt 785.656 1675.14
vt 785.656 644.912
f 31/102/1 29/47/1 26/50/1 28/106/1 54/107/1 19/104/1 

usemtl FrontColor
vt -1675.14 0
vt -572.38 0
vt -572.38 661.024
vt -1675.14 661.024
f 24/108/5 23/109/5 53/110/5 54/29/5 28/111/5 

vt 644.912 0
vn 1 0 -0
vt 1563.81 0
f 18/112/7 22/113/7 31/12/7 19/10/7 

f 8/84/1 10/61/1 34/60/1 35/65/1 

v 70.0557 9.0862 -23.313
vt 1675.14 661.024
f 49/9/7 59/11/7 50/114/7

v 70.0557 0.6886 -23.313
f 59/11/7 49/9/7 60/5/7

v 70.0557 0 -14.5385
vt 572.38 0
f 61/115/7 60/5/7 49/9/7

v 70.0557 0 -42.5485
vt 1675.14 0
f 60/5/7 61/115/7 62/116/7

v 70.0557 0.6886 -28.503
f 60/5/7 62/116/7 63/7/7

v 70.0557 9.0862 -28.503
f 63/7/7 62/116/7 64/13/7

f 50/114/7 64/13/7 62/116/7

f 50/114/7 59/11/7 64/13/7

vt -2758.1 1122.17
vt -2758.1 917.835
vt -2681.33 917.835
v 68.1057 9.0862 -28.503
vt -2681.33 1122.17
f 64/117/3 59/118/3 43/119/3 65/120/3 

vt -2758.1 357.724
vt -2758.1 27.1102
vt -2681.33 27.1102
vt -2681.33 357.724
f 59/121/4 60/122/4 41/123/4 43/124/4 

vt 2758.1 917.835
vt 2758.1 1122.17
vt 2681.33 1122.17
vt 2681.33 917.835
f 60/125/1 63/126/1 40/127/1 41/128/1 

vt 2758.1 27.1102
vt 2758.1 357.724
vt 2681.33 357.724
vt 2681.33 27.1102
f 63/129/6 64/130/6 65/131/6 40/132/6 

f 65/28/5 37/27/5 40/26/5

f 43/24/5 37/27/5 65/28/5

vt -2758.1 0
vt -2608.99 661.024
vt -2758.1 661.024
f 62/133/4 32/58/4 33/59/4 51/134/4 50/135/4 

vt 1675.14 1.82819e-013
f 10/12/2 32/136/2 33/114/2

f 10/12/2 5/6/2 32/136/2

f 10/12/2 11/13/2 5/6/2

f 2/7/2 5/6/2 11/13/2

vt 1834.08 27.1102
vt 1834.08 357.724
vt 1757.31 357.724
vt 1757.31 27.1102
f 2/137/6 11/138/6 13/139/6 3/140/6 

vt -1834.08 1563.81
f 6/40/3 32/57/3 5/141/3

f 6/40/3 14/36/3 32/57/3

f 15/39/3 32/57/3 14/36/3

usemtl Stone_Brushed_Khaki
vt 108.708 69.7973
vt 76.42 69.7973
f 51/142/1 33/143/1 10/81/1 38/77/1 

v 60.5961 16.79 -22.0531
vt 99.403 36.1763
f 48/82/1 45/79/1 66/144/1

f 66/144/1 45/79/1 46/78/1

usemtl FrontColor
vt 2385.67 1340.49
v 56.442 16.79 -29.8644
vt 2222.13 1175.76
vt 2385.67 868.232
f 46/145/1 67/146/1 66/147/1

v 56.412 16.79 -29.8644
vt 2220.95 1175.76
f 46/145/1 68/148/1 67/146/1

vt 2057.4 1340.49
f 47/149/1 68/148/1 46/145/1

v 56.412 16.79 -26.2372
vt 2220.95 1032.96
f 68/148/1 47/149/1 69/150/1

vt 2057.4 868.232
f 48/151/1 69/150/1 47/149/1

f 69/150/1 48/151/1 66/147/1

v 56.442 16.79 -26.2372
vt 2222.13 1032.96
f 69/150/1 66/147/1 70/152/1

f 70/152/1 66/147/1 67/146/1

f 68/148/1 69/150/1 70/152/1 67/146/1 

g Mesh2 Model

v 104.303 16.79 -41.9545
vt 4106.42 1651.75
v 124.636 16.79 -41.9545
vt 4906.92 1651.75
v 124.636 16.79 -65.2945
vt 4906.92 2570.65
v 104.303 16.79 -65.2945
vt 4106.42 2570.65
f 71/153/1 72/154/1 73/155/1 74/156/1 

v 126.473 0 -41.9545
vt -4979.25 0
v 104.303 0 -41.9545
vt -4106.42 0
vt -4106.42 661.024
vt -4906.92 661.024
v 125.263 16.79 -41.9545
vt -4931.61 661.024
v 126.473 16.79 -41.9545
vt -4979.25 661.024
f 75/157/4 76/158/4 71/159/4 72/160/4 77/161/4 78/162/4 

vt -4979.25 1651.75
vt -4106.42 1651.75
v 104.303 0 -65.2945
vt -4106.42 2570.65
v 126.473 0 -65.2945
vt -4979.25 2570.65
f 75/163/3 76/164/3 79/165/3 80/166/3 

vt 1651.75 0
vt 2570.65 0
vt 2570.65 661.024
vt 1651.75 661.024
f 76/167/7 79/168/7 74/169/7 71/170/7 

vt 4106.42 0
vt 4979.25 0
v 126.473 16.79 -65.2945
vt 4979.25 661.024
v 125.263 16.79 -65.2945
vt 4931.61 661.024
vt 4906.92 661.024
vt 4106.42 661.024
f 79/171/6 80/172/6 81/173/6 82/174/6 73/175/6 74/176/6 

vt -2570.65 0
v 126.473 0.6886 -54.0767
vt -2129 27.1102
vt -2570.65 661.024
f 80/177/5 83/178/5 81/179/5

v 126.473 0.6886 -48.8867
vt -1924.67 27.1102
f 80/177/5 84/180/5 83/178/5

vt -1651.75 0
f 75/181/5 84/180/5 80/177/5

v 126.473 9.0862 -48.8867
vt -1924.67 357.724
f 84/180/5 75/181/5 85/182/5

vt -1651.75 661.024
f 78/183/5 85/182/5 75/181/5

f 85/182/5 78/183/5 81/179/5

vt 4979.25 2570.65
vt 4931.61 2570.65
vt 4931.61 1651.75
vt 4979.25 1651.75
f 81/184/1 82/185/1 77/186/1 78/187/1 

f 72/154/1 77/186/1 82/185/1 73/155/1 

v 125.263 16.79 -68.1222
vt 4931.61 2681.97
v 124.636 16.79 -68.1222
vt 4906.92 2681.97
f 73/155/1 82/185/1 86/188/1 87/189/1 

v 125.263 0 -68.1222
vt -4931.61 0
v 101.793 0 -68.1222
vt -4007.59 0
v 101.793 16.79 -68.1222
vt -4007.59 661.024
f 87/160/4 86/161/4 88/190/4 89/191/4 90/192/4 

v 125.263 16.79 -40.1122
vt 4931.61 1579.22
v 128.423 16.79 -40.1122
vt 5056.02 1579.22
v 128.423 16.79 -41.9545
vt 5056.02 1651.75
v 127.773 16.79 -41.9545
vt 5030.43 1651.75
f 91/193/1 92/194/1 93/195/1 94/196/1 78/187/1 77/186/1 

v 126.473 9.0862 -54.0767
vt -2129 357.724
f 85/182/5 81/179/5 95/197/5

f 95/197/5 81/179/5 83/178/5

g Mesh3 Model

v 91.3156 16.79 -133.174
vt -5243.06 661.024
v 91.3156 9.0862 -140.106
vt -5515.99 357.724
v 91.3156 0 -133.174
vt -5243.06 0
f 96/198/5 97/199/5 98/200/5

v 91.3156 16.79 -156.514
vt -6161.96 661.024
f 97/199/5 96/198/5 99/201/5

vt 3595.1 6161.96
v 90.1055 16.79 -156.514
vt 3547.46 6161.96
v 90.1055 16.79 -133.174
vt 3547.46 5243.06
vt 3595.1 5243.06
f 99/202/1 100/203/1 101/204/1 96/205/1 

v 69.1456 0 -156.514
vt 2722.27 0
v 91.3156 0 -156.514
vt 3595.1 0
vt 3595.1 661.024
vt 3547.46 661.024
v 89.4783 16.79 -156.514
vt 3522.77 661.024
v 69.1456 16.79 -156.514
vt 2722.27 661.024
f 102/206/6 103/207/6 99/208/6 100/209/6 104/210/6 105/211/6 

vt -3595.1 5243.06
v 69.1456 0 -133.174
vt -2722.27 5243.06
vt -2722.27 6161.96
vt -3595.1 6161.96
f 98/212/3 106/213/3 102/214/3 103/215/3 

vt -3595.1 0
vt -2722.27 0
v 69.1456 16.79 -133.174
vt -2722.27 661.024
v 89.4783 16.79 -133.174
vt -3522.77 661.024
vt -3547.46 661.024
vt -3595.1 661.024
f 98/216/4 106/217/4 107/218/4 108/219/4 101/220/4 96/221/4 

vt 5243.06 0
vt 6161.96 0
vt 6161.96 661.024
vt 5243.06 661.024
f 106/222/7 102/223/7 105/224/7 107/225/7 

vt 2722.27 5243.06
vt 3522.77 5243.06
vt 3522.77 6161.96
vt 2722.27 6161.96
f 107/226/1 108/227/1 104/228/1 105/229/1 

f 108/227/1 101/204/1 100/203/1 104/228/1 

v 90.1055 16.79 -159.342
vt 3547.46 6273.29
v 89.4783 16.79 -159.342
vt 3522.77 6273.29
f 104/228/1 100/203/1 109/230/1 110/231/1 

v 90.1055 0 -159.342
vt -3547.46 0
v 66.6355 0 -159.342
vt -2623.44 0
v 66.6355 16.79 -159.342
vt -2623.44 661.024
f 110/219/4 109/220/4 111/232/4 112/233/4 113/234/4 

v 90.1055 16.79 -131.332
vt 3547.46 5170.53
v 93.2655 16.79 -131.332
vt 3671.87 5170.53
v 93.2655 16.79 -133.174
vt 3671.87 5243.06
v 92.6156 16.79 -133.174
vt 3646.28 5243.06
f 114/235/1 115/236/1 116/237/1 117/238/1 96/205/1 101/204/1 

v 91.3156 0.6886 -140.106
vt -5515.99 27.1102
vt -6161.96 0
f 98/200/5 118/239/5 103/240/5

f 118/239/5 98/200/5 97/199/5

v 91.3156 0.6886 -145.296
vt -5720.32 27.1102
f 103/240/5 118/239/5 119/241/5

f 103/240/5 119/241/5 99/201/5

v 91.3156 9.0862 -145.296
vt -5720.32 357.724
f 120/242/5 99/201/5 119/241/5

f 97/199/5 99/201/5 120/242/5

g Mesh4 Model

v 123.203 0 -281.674
vt 4850.52 0
v 145.373 0 -281.674
vt 5723.36 0
v 145.373 16.79 -281.674
vt 5723.36 661.024
v 144.163 16.79 -281.674
vt 5675.72 661.024
v 143.536 16.79 -281.674
vt 5651.02 661.024
v 123.203 16.79 -281.674
vt 4850.52 661.024
f 121/243/6 122/244/6 123/245/6 124/246/6 125/247/6 126/248/6 

v 145.373 0 -258.334
vt -5723.36 10170.6
v 123.203 0 -258.334
vt -4850.52 10170.6
vt -4850.52 11089.5
vt -5723.36 11089.5
f 127/249/3 128/250/3 121/251/3 122/252/3 

vt -5723.36 0
vt -4850.52 0
v 123.203 16.79 -258.334
vt -4850.52 661.024
v 143.536 16.79 -258.334
vt -5651.02 661.024
v 144.163 16.79 -258.334
vt -5675.72 661.024
v 145.373 16.79 -258.334
vt -5723.36 661.024
f 127/253/4 128/254/4 129/255/4 130/256/4 131/257/4 132/258/4 

vt 10170.6 0
vt 11089.5 0
vt 11089.5 661.024
vt 10170.6 661.024
f 128/259/7 121/260/7 126/261/7 129/262/7 

vt 4850.52 10170.6
vt 5651.02 10170.6
vt 5651.02 11089.5
vt 4850.52 11089.5
f 129/263/1 130/264/1 125/265/1 126/266/1 

vt 5675.72 10170.6
vt 5675.72 11089.5
f 130/264/1 131/267/1 124/268/1 125/265/1 

vt 5723.36 11089.5
vt 5723.36 10170.6
f 123/269/1 124/268/1 131/267/1 132/270/1 

v 144.163 16.79 -256.492
vt 5675.72 10098.1
v 147.323 16.79 -256.492
vt 5800.13 10098.1
v 147.323 16.79 -258.334
vt 5800.13 10170.6
v 146.673 16.79 -258.334
vt 5774.54 10170.6
f 133/271/1 134/272/1 135/273/1 136/274/1 132/270/1 131/267/1 

v 145.373 9.0862 -265.267
vt -10443.6 357.724
vt -10170.6 661.024
vt -11089.5 661.024
f 137/275/5 132/276/5 123/277/5

vt -10170.6 0
f 132/276/5 137/275/5 127/278/5

v 145.373 0.6886 -265.267
vt -10443.6 27.1102
f 138/279/5 127/278/5 137/275/5

vt -11089.5 0
f 127/278/5 138/279/5 122/280/5

v 145.373 0.6886 -270.457
vt -10647.9 27.1102
f 122/280/5 138/279/5 139/281/5

f 122/280/5 139/281/5 123/277/5

v 145.373 9.0862 -270.457
vt -10647.9 357.724
f 140/282/5 123/277/5 139/281/5

f 137/275/5 123/277/5 140/282/5

v 144.163 16.79 -284.502
vt 5675.72 11200.9
v 143.536 16.79 -284.502
vt 5651.02 11200.9
f 125/265/1 124/268/1 141/283/1 142/284/1 

v 144.163 0 -284.502
vt -5675.72 0
v 120.693 0 -284.502
vt -4751.7 0
v 120.693 16.79 -284.502
vt -4751.7 661.024
f 142/256/4 141/257/4 143/285/4 144/286/4 145/287/4 

